PathFileType	4	(X/Y/Z)	c:\Git\1_current_projects\powerlifing_model\simulations\Athlete_03\22_07_06\dl_70_test\markers_experimental.trc
DataRate	CameraRate	NumFrames	NumMarkers	Units	OrigDataRate	OrigDataStartFrame	OrigNumFrames
200.000000	200.000000	4	59	mm	200.000000	2458	2810
Frame#	Time	BL			BR			GLAB			RFHD			LFHD			C7			T6			SPINMOL			SPINM2			SPINM3			BELTOL			BELT2			BELT3			SACROL			SACR2			SACR3			LTHOL			LTH2			LTH3			LSHAOL			LSHA2			LSHA3			LHEE			LTOE			LM5			RTHOL			RTH2			RTH3			RSHAOL			RSHA2			RSHA3			RHEE			RTOE			RM5			STRN			XIPH			LACR			LUAOL			LUA2			LUA3			LLAOL			LLA2			LLA3			LWRU			RACR			RUAOL			RUA2			RUA3			RLAOL			RLA2			RLA3			RWRU			T12			USERMO0			USERMO1			USERMO2			USERMO3			USERMO4			USERMO5			
		X1	Y1	Z1	X2	Y2	Z2	X3	Y3	Z3	X4	Y4	Z4	X5	Y5	Z5	X6	Y6	Z6	X7	Y7	Z7	X8	Y8	Z8	X9	Y9	Z9	X10	Y10	Z10	X11	Y11	Z11	X12	Y12	Z12	X13	Y13	Z13	X14	Y14	Z14	X15	Y15	Z15	X16	Y16	Z16	X17	Y17	Z17	X18	Y18	Z18	X19	Y19	Z19	X20	Y20	Z20	X21	Y21	Z21	X22	Y22	Z22	X23	Y23	Z23	X24	Y24	Z24	X25	Y25	Z25	X26	Y26	Z26	X27	Y27	Z27	X28	Y28	Z28	X29	Y29	Z29	X30	Y30	Z30	X31	Y31	Z31	X32	Y32	Z32	X33	Y33	Z33	X34	Y34	Z34	X35	Y35	Z35	X36	Y36	Z36	X37	Y37	Z37	X38	Y38	Z38	X39	Y39	Z39	X40	Y40	Z40	X41	Y41	Z41	X42	Y42	Z42	X43	Y43	Z43	X44	Y44	Z44	X45	Y45	Z45	X46	Y46	Z46	X47	Y47	Z47	X48	Y48	Z48	X49	Y49	Z49	X50	Y50	Z50	X51	Y51	Z51	X52	Y52	Z52	X53	Y53	Z53	X54	Y54	Z54	X55	Y55	Z55	X56	Y56	Z56	X57	Y57	Z57	X58	Y58	Z58	X59	Y59	Z59	

2459	12.29	203.2936553955079	239.9832153320313	-2325.1005859375	222.418930053711	247.9246063232422	-102.5904541015625	544.9745483398439	958.7639160156252	-1197.756469726563	529.6894531250001	1020.983947753906	-1121.281982421875	528.4284667968751	1016.56689453125	-1279.890747070313	324.3963317871094	1068.500122070313	-1197.848388671875	136.8990325927735	1019.924865722656	-1199.260131835938	112.62158203125	1012.656555175781	-1201.938720703125	60.02609252929689	994.0960693359377	-1144.648681640625	55.55371856689455	989.7319335937502	-1193.902099609375	3.883512020111085	985.3931274414065	-1194.699340820313	-49.26204681396486	960.1281738281252	-1140.47705078125	-54.60551834106447	964.4028930664065	-1190.206298828125	-150.7904205322266	889.4780883789065	-1212.410400390625	-138.5492401123047	892.2045898437502	-1162.636962890625	-194.0705871582032	858.0015869140627	-1172.710693359375	8.584877967834474	672.5153198242189	-1423.010864257813	12.78246879577637	592.9986572265626	-1416.582763671875	50.20724487304689	626.7959594726564	-1420.5595703125	134.1344299316407	336.7727966308594	-1426.715209960938	86.69983673095705	274.1518249511719	-1420.095336914063	136.3460235595703	275.0688476562501	-1420.267700195313	27.96549606323243	66.75303649902345	-1333.649291992188	237.7206268310547	71.20193481445314	-1340.313232421875	194.0891876220704	56.6016311645508	-1447.621704101563	38.35394287109376	636.8923950195314	-981.9773559570315	117.205924987793	624.0759887695314	-985.5966796875002	79.93738555908205	590.6177978515626	-984.5074462890627	130.030029296875	333.9683837890626	-980.950866699219	160.6982574462891	261.3158569335938	-988.2006835937502	112.5165405273438	275.6581726074219	-989.1443481445315	28.3587818145752	65.3187942504883	-1069.683959960938	238.0160827636719	64.68062591552736	-1055.725952148438	196.3313751220704	68.88513946533205	-957.0130615234377	340.4623413085938	898.0728759765627	-1207.847045898438	240.5852661132813	779.8499145507815	-1192.03857421875	312.3261108398438	942.4094238281252	-1407.706787109375	263.4736022949219	805.425231933594	-1464.786254882813	226.3341369628907	753.5576782226564	-1482.704345703125	272.1333923339844	740.2415771484376	-1462.948852539063	251.2528839111329	520.3864746093751	-1465.483154296875	229.6445922851563	460.2373352050782	-1471.985229492188	269.4503173828126	464.7531738281251	-1441.414306640625	248.6588134765626	369.8422851562501	-1451.355346679688	331.8095703125001	928.838073730469	-1009.111877441406	292.2744750976563	761.5068969726564	-974.0476074218752	298.9017028808594	702.0368041992189	-1001.401306152344	279.3102111816407	699.1981201171876	-954.914489746094	265.9844665527344	503.1683349609376	-959.3580322265627	275.3426818847657	448.430633544922	-991.1875610351565	251.6937255859376	443.7122802734376	-945.5668945312502	246.2889862060547	365.8487548828126	-950.7943115234377	29.73046684265137	962.2837524414065	-1193.51611328125	0.1395040005445481	0.01753019914031029	-0.09888870269060138	0.1284320056438446	0.04370719939470292	-0.04524020105600358	0.02464159950613976	0.01864909939467907	-0.06242299824953081	0.03885459899902344	0.1829939931631089	-0.7696970105171206	0.382279008626938	2.897200107574463	-0.3581959903240204	2.887799978256226	0	0	
2460	12.295	203.5335540771485	240.1224670410157	-2325.104248046875	222.2648162841797	247.1731567382813	-102.5810775756836	545.4351196289064	957.8533325195315	-1197.561767578125	530.1235351562501	1020.037353515625	-1121.057739257813	528.9718627929689	1015.733032226563	-1279.676635742188	324.9310913085938	1067.832641601563	-1197.753540039063	137.3782043457032	1019.564331054688	-1199.227416992188	113.0862045288086	1012.33740234375	-1201.917358398438	60.45179748535158	993.8381958007815	-1144.645263671875	55.97726821899415	989.5048828125002	-1193.8984375	4.292635917663575	985.2586669921877	-1194.718872070313	-48.89056777954103	960.062194824219	-1140.500122070313	-54.22750091552736	964.3560791015627	-1190.227172851563	-150.55078125	889.499206542969	-1212.427978515625	-138.3062438964844	892.207214355469	-1162.657104492188	-193.8675231933594	858.0671386718752	-1172.733032226563	8.682438850402834	672.5153198242189	-1423.049682617188	12.86741733551026	592.9963378906251	-1416.634155273438	50.29833984375001	626.7912597656251	-1420.581298828125	134.2071990966797	336.7644653320313	-1426.70703125	86.75179290771486	274.1715698242188	-1420.125	136.404037475586	275.0616760253907	-1420.252197265625	27.99673461914063	66.73196411132814	-1333.667114257813	237.7205505371094	71.20306396484376	-1340.3115234375	194.092025756836	56.60363006591798	-1447.619384765625	38.3949089050293	636.8665771484376	-982.0001220703127	117.251708984375	624.0642089843751	-985.6150512695315	79.98899841308595	590.5989379882814	-984.5180664062502	130.0540161132813	333.9618530273438	-980.9732055664065	160.712631225586	261.3061523437501	-988.2124633789065	112.5333557128907	275.6545104980469	-989.1636962890627	28.35988998413087	65.32056427001955	-1069.700317382813	238.0159912109376	64.67616271972658	-1055.7314453125	196.3312988281251	68.88777160644533	-957.0240478515627	340.7276306152344	897.3419189453127	-1207.788208007813	240.6003723144532	779.3172607421877	-1192.082275390625	312.8163146972657	941.816101074219	-1407.620849609375	263.8825378417969	804.9752197265627	-1464.769775390625	226.6987915039063	753.1768188476564	-1482.788452148438	272.4442749023438	739.7843017578126	-1462.960815429688	251.3645172119141	519.9581909179689	-1465.602783203125	229.7477569580079	459.7933654785157	-1472.04345703125	269.5162658691407	464.3511962890626	-1441.4423828125	248.7398529052735	369.4223937988282	-1451.342407226563	332.1521606445313	928.108337402344	-1009.068725585938	292.4899291992188	760.8879394531251	-973.9978637695315	299.0357360839844	701.4035034179689	-1001.328979492188	279.5029602050782	698.5955200195314	-954.8150634765627	266.0661315917969	502.590545654297	-959.3281860351565	275.3766174316407	447.8650817871095	-991.1729736328127	251.768539428711	443.1379394531251	-945.5393676757815	246.3249969482422	365.2807922363282	-950.7647094726565	30.10192298889161	962.0631103515627	-1193.517944335938	0.1367969959974289	0.01722539961338044	-0.09809540212154391	0.110886998474598	0.04278809949755669	-0.04666829854249955	0.02411380037665368	0.01859850063920021	-0.06100770086050035	0.03963650017976762	0.1840800046920777	-0.7782899737358095	0.3848510086536409	2.900470018386841	-0.368604987859726	2.887629985809327	0	0	
2461	12.3	203.7676696777344	240.2879791259766	-2325.103759765625	222.1131744384766	246.4923248291016	-102.5669097900391	545.8839111328126	956.9180908203127	-1197.343872070313	530.5524291992189	1019.0693359375	-1120.81591796875	529.5236816406251	1014.87548828125	-1279.444458007813	325.4679260253907	1067.184936523438	-1197.656982421875	137.8515014648438	1019.21826171875	-1199.191650390625	113.54345703125	1012.032104492188	-1201.894653320313	60.8707733154297	993.5927734375002	-1144.640625	56.39510345458986	989.2878417968752	-1193.8935546875	4.693261623382569	985.1317138671877	-1194.735717773438	-48.52575302124025	960.0007324218752	-1140.521850585938	-53.85670471191408	964.313659667969	-1190.24560546875	-150.3142700195313	889.5191040039065	-1212.444702148438	-138.0650787353516	892.210632324219	-1162.676879882813	-193.6646270751954	858.130554199219	-1172.7529296875	8.781296730041506	672.5134887695314	-1423.089599609375	12.95528602600098	592.9923706054689	-1416.687377929688	50.39135360717775	626.7848510742189	-1420.605346679688	134.2816467285157	336.7565307617188	-1426.7021484375	86.80488586425783	274.1923828125001	-1420.158569335938	136.4634399414063	275.0544128417969	-1420.239990234375	28.02586555480958	66.71502685546876	-1333.68310546875	237.7208251953126	71.20445251464845	-1340.310302734375	194.0948181152344	56.60557174682619	-1447.61767578125	38.43859863281251	636.8467407226564	-982.0164184570315	117.300163269043	624.0581665039064	-985.6243286132815	80.04280090332033	590.5861816406251	-984.5179443359377	130.0789031982422	333.9540405273438	-980.9859008789065	160.7268524169922	261.2944335937501	-988.2171630859377	112.5501403808594	275.6494750976563	-989.1749267578127	28.36094093322755	65.32223510742189	-1069.715698242188	238.0158081054688	64.67239379882814	-1055.736083984375	196.3311767578126	68.88989257812501	-957.0337524414065	340.9883422851563	896.627380371094	-1207.722778320313	240.6110534667969	778.8001098632815	-1192.12939453125	313.3035888671876	941.240905761719	-1407.529663085938	264.2832336425782	804.5515136718752	-1464.755859375	227.0520782470704	752.8240356445314	-1482.877075195313	272.7445983886719	739.3531494140626	-1462.982055664063	251.4605255126954	519.5493774414064	-1465.736938476563	229.8411407470704	459.3712463378907	-1472.112915039063	269.5771789550782	463.9745178222657	-1441.487182617188	248.8184204101563	369.0242919921876	-1451.334228515625	332.5018615722657	927.4090576171877	-1009.020812988281	292.7200317382813	760.3010864257814	-973.9384765625002	299.1851501464844	700.8018798828126	-1001.245971679688	279.7127685546876	698.0253295898439	-954.7037353515627	266.1592102050782	502.0439758300782	-959.2937622070315	275.4209899902344	447.3321533203126	-991.1519165039065	251.8534698486329	442.5935974121095	-945.5052490234377	246.3683013916016	364.7444152832032	-950.730407714844	30.4676685333252	961.8525390625002	-1193.518432617188	0.1333840042352677	0.0169259998947382	-0.09769099950790408	0.09461429715156558	0.04193789884448052	-0.04789090156555177	0.02363610081374646	0.01855449937283993	-0.05911419913172723	0.04068149998784066	0.1851190030574799	-0.78754198551178	0.3881660103797914	2.90275001525879	-0.3794580101966859	2.887530088424683	0	0	
2462	12.305	203.9962310791016	240.4733428955079	-2325.0986328125	221.9649047851563	245.8966369628907	-102.547721862793	546.3163452148439	955.9607543945315	-1197.103271484375	530.9736328125001	1018.083984375	-1120.5576171875	530.0813598632814	1013.995849609375	-1279.195068359375	326.0046386718751	1066.563110351563	-1197.560668945313	138.3169555664063	1018.890319824219	-1199.153686523438	113.9914932250977	1011.743713378906	-1201.87109375	61.2813186645508	993.3626098632815	-1144.635009765625	56.80567550659181	989.0833740234377	-1193.887573242188	5.083936214447022	985.0142211914065	-1194.750244140625	-48.16903686523439	959.9454345703127	-1140.542358398438	-53.4943199157715	964.2770996093752	-1190.262084960938	-150.0812683105469	889.5386352539065	-1212.462158203125	-137.826644897461	892.2156372070315	-1162.697265625	-193.4624786376954	858.192321777344	-1172.772216796875	8.883984565734865	672.5104370117189	-1423.128295898438	13.04868316650391	592.9873657226564	-1416.7412109375	50.48894119262697	626.7773437500001	-1420.629516601563	134.3585815429688	336.7496643066407	-1426.698364257813	86.86032867431642	274.2135314941407	-1420.192260742188	136.5248413085938	275.0476684570313	-1420.2294921875	28.0527572631836	66.70285797119142	-1333.696533203125	237.7215576171876	71.20587158203126	-1340.30908203125	194.0976562500001	56.60770416259767	-1447.6162109375	38.48575592041016	636.8341064453126	-982.027282714844	117.3519668579102	624.0588378906251	-985.6262207031252	80.09942626953126	590.5805664062501	-984.5081787109377	130.1050415039063	333.9453125000001	-980.990417480469	160.7413177490235	261.2812500000001	-988.2159423828127	112.567253112793	275.6435241699219	-989.1789550781252	28.36201667785645	65.32395935058595	-1069.72998046875	238.015609741211	64.66920471191408	-1055.739990234375	196.3310546875001	68.8917694091797	-957.0422363281252	341.2447204589844	895.9359130859377	-1207.651611328125	240.6195068359376	778.303649902344	-1192.179443359375	313.7857055664063	940.688903808594	-1407.43359375	264.6740722656251	804.1574707031252	-1464.7431640625	227.3922424316407	752.5027465820314	-1482.968139648438	273.0324401855469	738.9519042968751	-1463.0107421875	251.5389099121094	519.1634521484376	-1465.88330078125	229.923324584961	458.9735107421876	-1472.18994140625	269.6333312988282	463.6265563964845	-1441.547607421875	248.8945922851563	368.6513671875001	-1451.330200195313	332.8584899902344	926.7482910156252	-1008.969848632813	292.9645080566407	759.7540283203126	-973.8732910156252	299.3499450683594	700.2399902343751	-1001.157104492188	279.9400634765626	697.4954223632814	-954.585144042969	266.2620544433594	501.5363769531251	-959.2544555664065	275.4758605957032	446.8392944335939	-991.1240234375002	251.9471130371094	442.0864562988282	-945.4650878906252	246.4191589355469	364.2471618652344	-950.6923828125002	30.82614517211915	961.654479980469	-1193.517944335938	0.1295479983091355	0.01664409972727299	-0.0977187976241112	0.07980970293283464	0.04123219847679139	-0.0487676002085209	0.02321650087833405	0.01847990043461323	-0.05686540156602861	0.04192119836807252	0.1861200034618378	-0.7973870038986208	0.392199993133545	2.904289960861206	-0.3907450139522554	2.887569904327393	0	0	
